<?xml version="1.0" encoding="UTF-8" standalone="no"?>
<!-- Created with Inkscape (http://www.inkscape.org/) -->

<svg
   xmlns:dc="http://purl.org/dc/elements/1.1/"
   xmlns:cc="http://creativecommons.org/ns#"
   xmlns:rdf="http://www.w3.org/1999/02/22-rdf-syntax-ns#"
   xmlns:svg="http://www.w3.org/2000/svg"
   xmlns="http://www.w3.org/2000/svg"
   xmlns:sodipodi="http://sodipodi.sourceforge.net/DTD/sodipodi-0.dtd"
   xmlns:inkscape="http://www.inkscape.org/namespaces/inkscape"
   width="437.1644"
   height="220.81104"
   id="svg4041"
   version="1.1"
   inkscape:version="0.48.4 r9939"
   sodipodi:docname="New document 5">
  <defs
     id="defs4043">
    <linearGradient
       id="linearGradient2994"
       y2="322.10999"
       gradientUnits="userSpaceOnUse"
       y1="367.87"
       gradientTransform="scale(1.6871,0.59274)"
       x2="208.67"
       x1="220.03">
      <stop
         id="stop2990"
         stop-color="#fff"
         offset="0" />
      <stop
         id="stop2992"
         stop-color="#fff"
         stop-opacity="0"
         offset="1" />
    </linearGradient>
  </defs>
  <sodipodi:namedview
     id="base"
     pagecolor="#ffffff"
     bordercolor="#666666"
     borderopacity="1.0"
     inkscape:pageopacity="0.0"
     inkscape:pageshadow="2"
     inkscape:zoom="0.49497475"
     inkscape:cx="289.01956"
     inkscape:cy="-154.04064"
     inkscape:document-units="px"
     inkscape:current-layer="layer1"
     showgrid="false"
     inkscape:window-width="1855"
     inkscape:window-height="1056"
     inkscape:window-x="65"
     inkscape:window-y="24"
     inkscape:window-maximized="1"
     fit-margin-top="0"
     fit-margin-left="0"
     fit-margin-right="0"
     fit-margin-bottom="0" />
  <metadata
     id="metadata4046">
    <rdf:RDF>
      <cc:Work
         rdf:about="">
        <dc:format>image/svg+xml</dc:format>
        <dc:type
           rdf:resource="http://purl.org/dc/dcmitype/StillImage" />
        <dc:title></dc:title>
      </cc:Work>
    </rdf:RDF>
  </metadata>
  <g
     inkscape:label="Layer 1"
     inkscape:groupmode="layer"
     id="layer1"
     transform="translate(-12.846373,-16.242378)">
    <g
       transform="translate(-2.7784271,-64.974222)"
       id="g3961">
      <path
         inkscape:connector-curvature="0"
         style="fill:none;stroke:#000000;stroke-width:1.87679994px"
         d="m 324.67,201.75 c 0,0 -175.07,-59.18 -175.07,-70.28 0,-11.09 4.93,-4.93 6.16,-17.26 -19.72,-23.425 0,-24.658 13.56,-32.055 8.63,20.955 56.72,40.685 56.72,40.685 l 109.73,60.41 -11.1,18.5 z"
         id="path2130" />
      <path
         inkscape:connector-curvature="0"
         style="fill:none"
         d="m 148.36,130.24 c 0,0 6.17,4.93 9.87,-4.93 3.7,-9.87 -6.17,-29.593 -1.23,-22.2 4.93,7.4 143.01,80.14 143.01,80.14 L 148.36,130.24 z"
         id="path2914" />
      <path
         inkscape:connector-curvature="0"
         style="fill:none;stroke:#000000;stroke-width:1.87679994px"
         d="m 22.608,220.24 c 0,0 -1.233,-61.64 3.699,-72.74 4.932,-11.1 14.795,-33.29 19.726,-38.22 4.932,-4.93 8.631,-6.17 13.562,0 4.932,6.16 4.932,28.36 11.097,36.99 6.164,8.63 9.863,14.79 22.192,16.02 12.326,1.24 25.896,-4.93 36.986,-14.79 11.1,-9.86 18.49,-22.19 27.13,-24.66 8.63,-2.46 9.86,0 24.65,8.63 14.8,8.63 136.86,54.25 136.86,54.25 l 12.33,-1.23 -125.76,-73.98 c 0,0 101.1,54.25 119.59,64.11 18.49,9.87 28.36,19.73 38.22,20.96 9.86,1.24 39.45,-6.16 48.08,-1.23 8.64,4.93 17.27,7.4 20.96,17.26 3.7,9.86 7.4,43.15 7.4,43.15 0,0 -14.79,19.73 -33.29,24.66 -18.49,4.93 -108.49,24.66 -130.69,20.96 -22.19,-3.7 -57.94,-3.7 -72.74,-12.33 -14.79,-8.63 -41.92,-9.86 -55.48,-9.86 -13.56,0 -73.973,4.93 -90,-2.47 -16.028,-7.4 -25.891,-35.75 -30.823,-40.68 -4.932,-4.94 -3.699,-14.8 -3.699,-14.8 z"
         id="path2116" />
      <path
         style="fill-opacity:0.22703002;fill-rule:evenodd"
         inkscape:connector-curvature="0"
         d="m 25.701,210.64 c -2.727,-6.81 -2.727,38.18 -1.363,40.91 141.79,27.27 224.96,9.54 224.96,9.54 0,0 -104.98,9.55 -211.33,-24.54 -9.542,-8.18 -12.269,-25.91 -12.269,-25.91 z"
         id="path2942" />
      <path
         style="fill:#171717;fill-rule:evenodd;stroke:#000000;stroke-width:1.63839996px"
         inkscape:connector-curvature="0"
         d="m 20.142,222.31 -3.698,30.06 c 0,0 0,1.88 1.233,8.46 1.232,6.58 2.465,10.34 9.863,13.15 7.397,2.82 76.44,13.16 80.14,13.16 3.7,0 32.05,-7.52 46.85,-5.64 14.79,1.88 24.66,3.76 32.06,6.58 7.39,2.82 23.42,11.27 54.24,12.21 30.83,0.94 64.11,2.82 99.87,-4.69 35.75,-7.52 70.27,-16.92 82.6,-20.68 12.33,-3.75 25.89,-13.15 27.13,-19.73 1.23,-6.57 3.7,-16.91 -2.47,-24.43 -6.16,-7.51 -13.56,-17.85 -13.56,-10.33 0,7.51 -13.56,6.58 -14.79,13.15 -1.24,6.58 1.23,15.04 1.23,15.98 6.16,-1.88 -8.63,7.51 -30.82,9.39 -22.2,1.88 -38.22,12.22 -61.65,9.4 -23.43,-2.82 -70.28,-10.34 -80.14,-10.34 -9.86,0 -92.47,5.64 -118.36,2.82 -25.89,-2.82 -82.604,-12.21 -94.933,-16.91 -12.329,-4.7 -14.795,-21.61 -14.795,-21.61 z"
         id="path2118" />
      <path
         style="fill:none;stroke:#000000;stroke-width:5.63030005;stroke-linecap:round;stroke-linejoin:round"
         inkscape:connector-curvature="0"
         d="m 329.6,178.32 -19.72,13.56 -19.73,-34.52 -50.55,4.93 -3.7,-35.75 -55.48,9.86 12.33,-19.72 23.42,-1.24 v 35.76 l 42.24,-11.62 21.88,38.74 h 49.31 z"
         id="path2142" />
      <path
         style="fill:url(#linearGradient2994);fill-rule:evenodd"
         inkscape:connector-curvature="0"
         d="m 336.23,189.88 c 0,0 9.87,4.94 20.96,6.17 11.1,1.23 43.15,-2.47 43.15,-2.47 0,0 13.57,0 1.24,7.4 -12.33,7.4 -106.03,29.59 -92.47,22.19 13.56,-7.4 48.08,-11.09 57.95,-17.26 9.86,-6.16 -30.83,-16.03 -30.83,-16.03 z"
         id="path2902" />
      <path
         style="fill-opacity:0.05405399;fill-rule:evenodd"
         inkscape:connector-curvature="0"
         d="m 218.64,161.06 c 0,0 108.5,34.52 92.47,41.92 -16.03,7.4 -92.47,-41.92 -92.47,-41.92 z"
         id="path2906" />
      <path
         inkscape:connector-curvature="0"
         style="fill:none;stroke:#000000;stroke-width:5.63030005;stroke-linecap:round;stroke-linejoin:round"
         d="m 191.52,116.68 c -11.1,-3.7 -7.4,-3.7 -17.26,-1.24 -9.87,2.47 -19.73,14.8 -8.63,16.03 11.09,1.23 19.72,-3.7 25.89,-14.79 z"
         id="path2936" />
      <path
         style="fill:none;stroke:#000000;stroke-width:5.63030005;stroke-linecap:round;stroke-linejoin:round"
         inkscape:connector-curvature="0"
         d="m 190.28,112.98 c 0,0 4.94,-11.1 13.57,-9.87 8.63,1.24 20.96,9.87 11.09,6.17 -8.63,6.16 -24.66,3.7 -24.66,3.7 z"
         id="path2938" />
      <path
         style="fill:none;stroke:#000000;stroke-width:5.63030005"
         inkscape:connector-curvature="0"
         d="m 202.61,143.8 -11.09,-28.36 c 0,0 23.42,12.33 30.82,18.5"
         id="path2940" />
      <path
         style="fill:#ffffff;fill-opacity:0.21622003;fill-rule:evenodd;stroke:#000000;stroke-width:1.86249995;stroke-linejoin:round"
         inkscape:connector-curvature="0"
         d="m 110.28,184.2 c 0,0 32.34,-14.53 39.69,-22.45 7.35,-7.92 10.29,-13.21 14.7,-13.21 4.41,0 101.42,44.9 110.24,48.87 8.82,3.96 41.16,7.92 20.58,10.56 -20.58,2.64 -85.25,0 -107.3,-5.28 -22.05,-5.28 -77.91,-18.49 -77.91,-18.49 z"
         id="path2944" />
      <path
         sodipodi:nodetypes="ccccccc"
         inkscape:connector-curvature="0"
         id="path3191"
         d="m 52.011987,105.30822 c 4.996207,-6.610585 26.26963,-15.893187 32.808497,-8.489359 1.754386,1.715998 4.906325,9.735409 9.785681,15.766749 5.939315,8.07038 7.727465,8.44008 11.558215,10.91611 4.37619,3.82047 9.05883,4.71415 13.05652,6.63527 5.85239,2.56462 8.70493,1.92515 19.04965,2.99658 3.78941,0.9824 9.34931,-6.32578 13.48459,-8.34762"
         style="fill:none;stroke:#000000;stroke-width:1.70000005;stroke-linecap:round;stroke-linejoin:miter;stroke-miterlimit:4;stroke-opacity:1;stroke-dasharray:none" />
    </g>
  </g>
</svg>
