<?xml version="1.0" encoding="UTF-8" standalone="no"?>
<!-- Created with Inkscape (http://www.inkscape.org/) -->

<svg
   xmlns:dc="http://purl.org/dc/elements/1.1/"
   xmlns:cc="http://creativecommons.org/ns#"
   xmlns:rdf="http://www.w3.org/1999/02/22-rdf-syntax-ns#"
   xmlns:svg="http://www.w3.org/2000/svg"
   xmlns="http://www.w3.org/2000/svg"
   xmlns:sodipodi="http://sodipodi.sourceforge.net/DTD/sodipodi-0.dtd"
   xmlns:inkscape="http://www.inkscape.org/namespaces/inkscape"
   width="20mm"
   height="20mm"
   viewBox="0 0 20 20"
   version="1.1"
   id="svg1139"
   sodipodi:docname="Virus icon.svg"
   inkscape:version="0.92.3 (2405546, 2018-03-11)">
  <title
     id="title200">Virus icon</title>
  <defs
     id="defs1133">
    <clipPath
       clipPathUnits="userSpaceOnUse"
       id="clipPath5238-1-8-9-8-4">
      <rect
         transform="rotate(-90)"
         style="color:#000000;display:inline;overflow:visible;visibility:visible;fill:#ffffff;fill-opacity:1;fill-rule:evenodd;stroke:none;enable-background:accumulate"
         id="rect5240-2-3-9-5-1"
         width="315.35437"
         height="744.09448"
         x="-1016.9291"
         y="1461.6753" />
    </clipPath>
    <clipPath
       clipPathUnits="userSpaceOnUse"
       id="clipPath5242-3-9-7-7">
      <rect
         transform="rotate(-90)"
         style="color:#000000;display:inline;overflow:visible;visibility:visible;fill:#ffffff;fill-opacity:1;fill-rule:evenodd;stroke:none;enable-background:accumulate"
         id="rect5244-3-2-6-6"
         width="315.35437"
         height="744.09448"
         x="-1016.9291"
         y="1461.6753" />
    </clipPath>
  </defs>
  <sodipodi:namedview
     id="base"
     pagecolor="#ffffff"
     bordercolor="#666666"
     borderopacity="1.0"
     inkscape:pageopacity="0.0"
     inkscape:pageshadow="2"
     inkscape:zoom="6.9717708"
     inkscape:cx="37.795276"
     inkscape:cy="37.795276"
     inkscape:document-units="mm"
     inkscape:current-layer="layer1"
     showgrid="false"
     inkscape:window-width="944"
     inkscape:window-height="1041"
     inkscape:window-x="960"
     inkscape:window-y="0"
     inkscape:window-maximized="0"
     inkscape:snap-bbox="true"
     inkscape:bbox-paths="true"
     inkscape:snap-bbox-edge-midpoints="true"
     inkscape:bbox-nodes="true"
     inkscape:snap-bbox-midpoints="true"
     inkscape:object-paths="true"
     inkscape:snap-intersection-paths="true"
     inkscape:snap-smooth-nodes="true"
     inkscape:snap-midpoints="true"
     fit-margin-left="0"
     fit-margin-top="0"
     fit-margin-right="0"
     fit-margin-bottom="0" />
  <metadata
     id="metadata1136">
    <rdf:RDF>
      <cc:Work
         rdf:about="">
        <dc:format>image/svg+xml</dc:format>
        <dc:type
           rdf:resource="http://purl.org/dc/dcmitype/StillImage" />
        <dc:title>Virus icon</dc:title>
        <dc:date>2018-09-30</dc:date>
        <dc:creator>
          <cc:Agent>
            <dc:title>m1981</dc:title>
          </cc:Agent>
        </dc:creator>
        <dc:rights>
          <cc:Agent>
            <dc:title>Public domain</dc:title>
          </cc:Agent>
        </dc:rights>
        <dc:publisher>
          <cc:Agent>
            <dc:title>Inkscape</dc:title>
          </cc:Agent>
        </dc:publisher>
        <dc:subject>
          <rdf:Bag>
            <rdf:li>icon</rdf:li>
            <rdf:li>flat</rdf:li>
            <rdf:li>IT</rdf:li>
            <rdf:li>computer</rdf:li>
            <rdf:li>bomb</rdf:li>
            <rdf:li>treat</rdf:li>
            <rdf:li>attack</rdf:li>
            <rdf:li>security</rdf:li>
            <rdf:li>malware</rdf:li>
            <rdf:li>virus</rdf:li>
            <rdf:li></rdf:li>
          </rdf:Bag>
        </dc:subject>
        <dc:description>A virus icon.</dc:description>
      </cc:Work>
    </rdf:RDF>
  </metadata>
  <g
     inkscape:label="Calque 1"
     inkscape:groupmode="layer"
     id="layer1"
     transform="translate(-25.414562,-146.5562)">
    <path
       style="display:inline;opacity:1;vector-effect:none;fill:#4d4d4d;fill-opacity:1;fill-rule:evenodd;stroke:none;stroke-width:0.31875274px;stroke-linecap:butt;stroke-linejoin:miter;stroke-miterlimit:4;stroke-dasharray:none;stroke-dashoffset:0;stroke-opacity:1;marker:none"
       d="m 41.055664,150.7823 a 0.66464346,0.66464346 0 0 0 -0.478725,0.19511 0.66464346,0.66464346 0 0 0 0,0.94035 0.66464346,0.66464346 0 0 0 0.939128,0 0.66464346,0.66464346 0 0 0 0,-0.94035 0.66464346,0.66464346 0 0 0 -0.460478,-0.19511 z m 1.655302,0.86641 a 0.5376153,0.5376153 0 0 0 -0.387732,0.15758 0.5376153,0.5376153 0 0 0 0,0.7598 0.5376153,0.5376153 0 0 0 0.759798,-2e-5 0.5376153,0.5376153 0 0 0 0,-0.75978 0.5376153,0.5376153 0 0 0 -0.372015,-0.15758 z m -5.213088,0.17447 c -0.196047,0.0141 -0.39397,0.0692 -0.579227,0.15759 -0.370735,0.17635 -0.740996,0.46718 -1.180247,0.90643 l -0.407147,-0.40715 c -0.3428,-0.34282 -0.894428,-0.34282 -1.237229,0 l -0.55864,0.55984 c -0.02507,0.0251 -0.04573,0.0525 -0.06636,0.0802 a 4.7423848,4.7423848 0 0 0 -4.927131,1.1136 4.7423848,4.7423848 0 0 0 1.9e-5,6.70722 4.7423848,4.7423848 0 0 0 6.707197,0 4.7423848,4.7423848 0 0 0 1.11484,-4.92953 c 0.02582,-0.0234 0.05441,-0.0408 0.07903,-0.0652 l 0.559838,-0.55862 c 0.342801,-0.34282 0.342826,-0.89443 0,-1.23723 l -0.409567,-0.40958 c 0.383464,-0.38349 0.675567,-0.59021 0.843309,-0.6702 0.167906,-0.08 0.159698,-0.0455 0.150318,-0.0497 -0.0094,-0.005 0.04735,0.0251 0.12593,0.1611 0.07856,0.13555 0.167202,0.35164 0.264145,0.58409 0.09708,0.23239 0.200502,0.48446 0.365974,0.73311 0.165561,0.24864 0.42016,0.51483 0.793702,0.62045 0.37357,0.10553 0.780742,0.0188 1.164534,-0.18291 0.215511,-0.11327 0.439605,-0.27608 0.674978,-0.47014 a 0.96808681,0.96808681 0 0 0 0.842205,-0.26902 0.96808681,0.96808681 0 0 0 0,-1.36931 0.96808681,0.96808681 0 0 0 -1.369301,0 0.96808681,0.96808681 0 0 0 -0.279927,0.74282 c -0.171424,0.13743 -0.31769,0.23953 -0.428914,0.29816 -0.212931,0.11232 -0.272545,0.091 -0.276367,0.0896 -0.0026,-3.1e-4 -0.03755,-0.0117 -0.11397,-0.12711 -0.07621,-0.11467 -0.166265,-0.30912 -0.25934,-0.53195 -0.09286,-0.22278 -0.189715,-0.47386 -0.333233,-0.72101 -0.143517,-0.24717 -0.345331,-0.51687 -0.693131,-0.66649 -0.174003,-0.0748 -0.368617,-0.10154 -0.56469,-0.0872 z m 2.152132,0.0762 a 0.35411726,0.35411726 0 0 0 -0.255663,0.10295 0.35411726,0.35411726 0 0 0 0,0.5017 0.35411726,0.35411726 0 0 0 0.501683,-2e-5 0.35411726,0.35411726 0 0 0 2.4e-5,-0.50166 0.35411726,0.35411726 0 0 0 -0.24602,-0.10294 z m 3.489939,1.54624 a 0.54465952,0.54465952 0 0 0 -0.393927,0.15876 0.54465952,0.54465952 0 0 0 2.6e-5,0.7707 0.54465952,0.54465952 0 0 0 0.770684,-2e-5 0.54465952,0.54465952 0 0 0 0,-0.77068 0.54465952,0.54465952 0 0 0 -0.376851,-0.15876 z m -11.245327,0.78283 a 0.58629275,0.58629275 0 0 1 0.410783,0.15641 0.58629275,0.58629275 0 0 1 -0.407146,1.01424 c -0.992921,2e-5 -1.856379,0.66107 -2.113348,1.62015 a 0.58835774,0.58835774 0 1 1 -1.136647,-0.30293 c 0.392865,-1.4662 1.728425,-2.4878 3.246358,-2.48778 z m 10.295297,0.64344 a 0.44585983,0.44585983 0 0 0 -0.321181,0.12968 0.44585983,0.44585983 0 0 0 0,0.63133 0.44585983,0.44585983 0 0 0 0.630143,0 0.44585983,0.44585983 0 0 0 0,-0.63133 0.44585983,0.44585983 0 0 0 -0.309011,-0.12968 z"
       id="path5001-5"
       inkscape:connector-curvature="0" />
  </g>
</svg>
